<svg xmlns="http://www.w3.org/2000/svg" width="64" height="64" viewBox="0 0 64 64"><g><g><g/><g><path fill="#fff" d="M36.621 34.982a.938.938 0 0 1 1.326 1.326l-7.71 7.71a.938.938 0 0 1-1.326 0l-2.85-2.85a.937.937 0 1 1 1.325-1.327l2.188 2.188zm16.341-8.619c2.449 5.105 3.582 9.768 3.37 13.86-.334 6.417-2.954 12.38-7.376 16.793A23.85 23.85 0 0 1 31.991 64C18.57 64 7.65 53.312 7.65 40.174c0-7.005 4-15.864 11.89-26.329A134.22 134.22 0 0 1 31.338.267.938.938 0 0 1 32.62.242a117.323 117.323 0 0 1 12.148 13.271c3.504 4.497 6.26 8.82 8.193 12.85zM43.29 14.666A117.504 117.504 0 0 0 32.015 2.24a134.958 134.958 0 0 0-10.992 12.753c-5.245 6.96-11.498 16.978-11.498 25.18 0 12.104 10.078 21.951 22.466 21.951a21.986 21.986 0 0 0 15.64-6.436c4.094-4.084 6.518-9.611 6.828-15.563.355-6.823-3.507-15.627-11.169-25.46zM41.922 31.11c.89.192 1.9.41 2.4 1.276.496.856.184 1.831-.09 2.692-.134.418-.317.99-.257 1.214.053.198.5.603.796.87.683.619 1.456 1.319 1.456 2.338 0 1.019-.773 1.72-1.456 2.337-.296.268-.743.673-.796.87-.06.225.123.797.256 1.215.275.86.587 1.836.092 2.692-.502.866-1.51 1.084-2.401 1.276-.399.086-1.001.216-1.157.372-.155.155-.285.758-.371 1.156-.193.89-.41 1.9-1.276 2.401-.856.495-1.832.184-2.693-.091-.417-.134-.99-.317-1.214-.256-.198.053-.602.5-.87.796-.618.682-1.318 1.456-2.338 1.456-1.019 0-1.719-.774-2.337-1.456-.268-.296-.672-.743-.87-.796-.225-.06-.797.123-1.215.256-.86.275-1.836.586-2.692.091-.866-.501-1.083-1.51-1.276-2.4-.086-.4-.216-1.002-.371-1.157-.156-.156-.758-.286-1.157-.372-.89-.192-1.9-.41-2.4-1.276-.496-.856-.184-1.831.09-2.692.134-.418.317-.99.257-1.214-.053-.198-.5-.603-.796-.87-.683-.619-1.456-1.319-1.456-2.338 0-1.02.773-1.72 1.456-2.337.296-.268.743-.673.796-.87.06-.225-.123-.797-.256-1.215-.275-.86-.587-1.836-.092-2.692.501-.866 1.51-1.084 2.401-1.276.399-.086 1.001-.216 1.157-.372.155-.155.285-.758.371-1.156.193-.89.41-1.9 1.276-2.401.856-.495 1.832-.184 2.693.091.417.134.99.316 1.214.256.197-.053.602-.5.87-.796.618-.682 1.318-1.456 2.337-1.456 1.02 0 1.72.774 2.338 1.456.268.296.673.743.87.796.225.06.797-.122 1.214-.256.861-.275 1.837-.586 2.693-.091.865.501 1.083 1.51 1.276 2.4.086.4.216 1.002.371 1.157.156.156.758.286 1.157.372zm-.396 1.833c-.757-.164-1.54-.333-2.087-.88-.545-.545-.714-1.328-.878-2.086-.08-.371-.23-1.062-.384-1.174-.17-.067-.828.142-1.181.255-.71.227-1.513.483-2.269.282-.732-.196-1.263-.782-1.776-1.35-.227-.25-.76-.839-.947-.839-.188 0-.72.589-.948.84-.513.567-1.044 1.153-1.776 1.349-.755.202-1.56-.055-2.269-.282-.353-.113-1.01-.322-1.187-.252-.148.109-.298.8-.378 1.171-.163.758-.333 1.541-.878 2.087-.546.546-1.33.715-2.087.878-.371.08-1.063.23-1.175.384-.067.17.143.828.256 1.182.226.709.483 1.513.281 2.268-.196.732-.782 1.263-1.349 1.777-.25.227-.84.76-.84.947 0 .187.59.72.84.947.567.514 1.153 1.044 1.35 1.777.201.755-.056 1.559-.282 2.268-.113.353-.323 1.01-.252 1.187.108.149.8.298 1.17.378.758.164 1.542.333 2.088.879.545.546.715 1.33.878 2.087.08.371.23 1.062.384 1.174.17.068.828-.143 1.181-.256.529-.168 1.11-.354 1.685-.354a2.25 2.25 0 0 1 .584.073c.732.196 1.263.782 1.776 1.35.228.25.76.839.948.839.187 0 .72-.589.947-.84.513-.567 1.044-1.153 1.776-1.349.756-.201 1.56.055 2.269.282.353.112 1.01.323 1.187.252.149-.109.298-.8.378-1.171.164-.758.333-1.541.879-2.087.545-.546 1.329-.715 2.086-.878.372-.08 1.063-.23 1.175-.384.067-.171-.143-.829-.256-1.182-.226-.71-.483-1.513-.281-2.268.196-.733.782-1.263 1.349-1.777.251-.227.84-.76.84-.947 0-.187-.59-.72-.84-.947-.567-.514-1.153-1.044-1.35-1.777-.201-.755.056-1.559.282-2.268.113-.353.323-1.01.253-1.187-.11-.149-.8-.298-1.172-.378z"/></g></g></g></svg>