<svg xmlns="http://www.w3.org/2000/svg" width="64" height="64" viewBox="0 0 64 64"><g><g><g/><g><path fill="#fff" d="M57 2a5.006 5.006 0 0 1 5 5v6a1 1 0 0 1-1 1h-7v44a5.006 5.006 0 0 1-5 5H7a5.006 5.006 0 0 1-5-5v-4a1 1 0 0 1 1-1h5V31.064h2V53h35a1 1 0 0 1 1 1v4a3 3 0 0 0 6 0V7a4.948 4.948 0 0 1 1.026-3H13a3 3 0 0 0-3 3v18H8V7a5.006 5.006 0 0 1 5-5zM45 61a4.98 4.98 0 0 1-1-3v-3H4v3a3 3 0 0 0 3 3zM60 7a3 3 0 0 0-6 0v5h6z"/></g><g><path fill="#fff" d="M10 27H8v2.064h2z"/></g><g><path fill="#fff" d="M46.945 31.053A7.008 7.008 0 0 1 48.998 36a6.873 6.873 0 0 1-1.065 3.663l2.272 8.06a1 1 0 0 1-1.27 1.223l-2.8-.905-1.907 2.232a1 1 0 0 1-1.722-.373l-.508-1.8-.501 1.806a1 1 0 0 1-1.722.373l-1.907-2.232-2.8.905a1 1 0 0 1-1.27-1.223l2.269-8.059a6.87 6.87 0 0 1-1.07-3.67 7.008 7.008 0 0 1 7-7 7.008 7.008 0 0 1 4.948 2.053zm-5.578 11.912c-.063-.006-.126-.002-.19-.011a6.877 6.877 0 0 1-3.538-1.488l-1.412 5.011 1.653-.536a1 1 0 0 1 1.068.3l1.125 1.316zm3.144-2.644a4.98 4.98 0 0 0 1.524-1.383c.629-.85.967-1.88.963-2.938a5 5 0 0 0-10 0 4.9 4.9 0 0 0 .955 2.93 4.96 4.96 0 0 0 3.465 2.039c.378.051.761.051 1.14 0a4.98 4.98 0 0 0 1.953-.648zm3.258 6.15l-1.412-5.009a6.993 6.993 0 0 1-2.878 1.373l-.442 1.572.886 3.147 1.125-1.316a1 1 0 0 1 1.068-.3z"/></g><g><path fill="#fff" d="M22 8h-3v2h3z"/></g><g><path fill="#fff" d="M32 8h-8v2h8z"/></g><g><path fill="#fff" d="M39 8h-5v2h5z"/></g><g><path fill="#fff" d="M48 14H14v2h34z"/></g><g><path fill="#fff" d="M41 25H14v2h27z"/></g><g><path fill="#fff" d="M19 19h-5v2h5z"/></g><g><path fill="#fff" d="M48 25h-5v2h5z"/></g><g><path fill="#fff" d="M48 19H21v2h27z"/></g><g><path fill="#fff" d="M18 35h-4v2h4z"/></g><g><path fill="#fff" d="M28 43h-4v2h4z"/></g><g><path fill="#fff" d="M28 35h-8v2h8z"/></g><g><path fill="#fff" d="M22 43h-8v2h8z"/></g><g><path fill="#fff" d="M28 39H14v2h14z"/></g></g></g></svg>