<svg xmlns="http://www.w3.org/2000/svg" width="64" height="64" viewBox="0 0 64 64"><g><g><g/><g><path fill="#fff" d="M11.755 60.865a1.03 1.03 0 0 1-1.024 1.01H1.658a1.033 1.033 0 0 1-1.028-1.01v-23.05c0-.552.475-.94 1.028-.94h9.073c.552 0 1.024.388 1.024.94v.503c.316-.185.645-.345.986-.479a1.462 1.462 0 0 0 .857-1.142l.195-1.316a15.122 15.122 0 0 0-.17-5.373l-.224-1.05a1 1 0 0 1 .979-1.208h2.859a5.454 5.454 0 0 1 5.393 5.356v3.269h11.323c2.252 0 4.088 1.805 4.092 4.024a4.041 4.041 0 0 1-2.123 3.55 4.043 4.043 0 0 1-.927 5.932 4.046 4.046 0 0 1-1.012 6.239 4.052 4.052 0 0 1-3.123 6.63H19.815a17.608 17.608 0 0 1-8.06-1.979zm0-20.293v17.945l.873.466a15.61 15.61 0 0 0 7.187 1.767h11.044a2.062 2.062 0 0 0 0-4.125h-2.787a1 1 0 0 1 0-2h3.92a2.062 2.062 0 0 0 0-4.125h-3.05a1 1 0 0 1 0-2h3.834a2 2 0 0 0 0-4h-2.962a1.038 1.038 0 0 1-.88-.567 1.153 1.153 0 0 1-.13-.53 1.024 1.024 0 0 1 1-1.028h4.192a2.007 2.007 0 0 0 1.895-1.206c.103-.242.155-.503.154-.766a2.065 2.065 0 0 0-2.092-2.028h-12.36a.968.968 0 0 1-.963-1v-4.27a3.455 3.455 0 0 0-3.393-3.355h-1.625c.397 1.95.452 3.955.16 5.924l-.192 1.315a3.462 3.462 0 0 1-2.04 2.681 15.6 15.6 0 0 0-.913.441zm-2-1.697H2.63v21h7.125z"/></g><g><path fill="#fff" d="M46.804 1.25A16.567 16.567 0 0 1 63.35 17.84c-.013 9.127-7.442 16.535-16.567 16.535h-.06a16.005 16.005 0 0 1-5.452-.944l-8.77 1.548a1.02 1.02 0 0 1-.648-.105 1.004 1.004 0 0 1-.45-1.276l2.366-5.521a16.479 16.479 0 0 1-3.579-10.231c.001-9.146 7.438-16.59 16.563-16.591V1.25zm-.025 31.125A14.554 14.554 0 0 0 57.097 7.541a14.567 14.567 0 0 0-24.882 10.308A14.46 14.46 0 0 0 35.7 27.26a.999.999 0 0 1 .16 1.045l-1.883 4.382 7.215-1.269a1 1 0 0 1 .529.046c1.61.608 3.317.916 5.038.91z"/></g><g><path fill="#fff" d="M46.061 16.38a1 1 0 1 0 0-2H41.21a1 1 0 0 0 0 2zm-4.851 2.5a1 1 0 0 0 0 2h11.14a1 1 0 1 0 0-2z"/></g></g></g></svg>