<svg xmlns="http://www.w3.org/2000/svg" width="60" height="57" viewBox="0 0 60 57"><g><g><g><path fill="#fff" d="M51.86 6.94a3 3 0 1 1-6 0 3 3 0 0 1 6 0zm-4.01 0a1 1 0 0 0 1.01 1 1 1 0 1 0-1-1z"/></g><g><path fill="#fff" d="M60 20.998c0 3-5.77 4.31-11.14 4.31-5.37 0-11.15-1.31-11.15-4.31 0-2.23 3.37-3.49 6.93-4a28.84 28.84 0 0 1-2.21-10A6.45 6.45 0 0 1 51 .858a6.32 6.32 0 0 1 4.26 6.12v.51a28.9 28.9 0 0 1-2.19 9.51c3.56.49 6.93 1.75 6.93 4zM44.905 4.958a4.46 4.46 0 0 0-.475 2.04A26.84 26.84 0 0 0 47 17.388c.36.767.761 1.515 1.2 2.24a.77.77 0 0 0 .66.38.79.79 0 0 0 .68-.38c.427-.72.818-1.46 1.17-2.22a27.76 27.76 0 0 0 2.57-10v-.41a4.37 4.37 0 0 0-2.92-4.23 4.67 4.67 0 0 0-1.5-.25 4.41 4.41 0 0 0-3.955 2.44zm3.955 18.35c5.94 0 9.14-1.64 9.14-2.31 0-.44-1.73-1.65-5.79-2.12-.05.11-.12.23-.18.34l-.16.31c-.19.35-.39.72-.62 1.11a2.78 2.78 0 0 1-2.4 1.36 2.74 2.74 0 0 1-2.37-1.3c-.3-.5-.59-1.03-.87-1.57l-.1-.2c-4.06.47-5.8 1.68-5.8 2.12 0 .67 3.21 2.31 9.15 2.31z"/></g><g><path fill="#fff" d="M46.86 31.36a5 5 0 0 1 5 5V46a5 5 0 0 1-5 5H28.31a3.58 3.58 0 1 1 0-2h18.55a3 3 0 0 0 3-3v-9.64a3 3 0 0 0-3-3H19.32a5 5 0 0 1-5-5V25a5 5 0 0 1 5-5h10.35a3.58 3.58 0 1 1 0 2H19.32a3 3 0 0 0-3 3v3.36a3 3 0 0 0 3 3zM32.485 19.54a1.58 1.58 0 1 0 1.21 2.92 1.58 1.58 0 0 0-1.21-2.92zm-6.478 31.577a1.58 1.58 0 1 0-2.234-2.234 1.58 1.58 0 0 0 2.234 2.234z"/></g><g><path fill="#fff" d="M16.59 39.7A3.41 3.41 0 0 1 20 43.11v10.48A3.41 3.41 0 0 1 16.59 57H3.41A3.41 3.41 0 0 1 0 53.59V43.11a3.41 3.41 0 0 1 3.41-3.41zm-8.57 2v3.22a.19.19 0 0 0 .1.17.18.18 0 0 0 .2 0l.68-.34a2.2 2.2 0 0 1 1-.24c.346 0 .688.079 1 .23l.69.35a.25.25 0 0 0 .21 0 .21.21 0 0 0 .09-.18V41.7zM18 43.11a1.41 1.41 0 0 0-1.4-1.41H14v3.21a2.18 2.18 0 0 1-1.08 1.88 2.16 2.16 0 0 1-1.15.33 2.23 2.23 0 0 1-1-.24l-.69-.35a.21.21 0 0 0-.19 0l-.68.34a2.17 2.17 0 0 1-2.15-.08A2.19 2.19 0 0 1 6 44.91V41.7H3.41A1.41 1.41 0 0 0 2 43.11v10.48A1.41 1.41 0 0 0 3.41 55h13.18a1.41 1.41 0 0 0 1.4-1.41z"/></g></g></g></svg>