<svg xmlns="http://www.w3.org/2000/svg" width="30" height="30" viewBox="0 0 30 30"><g><g><g><path fill="#fff" d="M30 15c0 8.284-6.716 15-15 15-8.284 0-15-6.716-15-15C0 6.716 6.716 0 15 0c8.284 0 15 6.716 15 15z"/></g><g transform="rotate(180 14.5 15.5)"><g/><g><path fill="#d69944" d="M13.522 10.517l-4.36 4.367a.55.55 0 1 0 .776.778l3.536-3.542a.274.274 0 0 1 .468.194v8.136c0 .304.251.55.555.55h.001a.544.544 0 0 0 .543-.55v-8.136a.275.275 0 0 1 .469-.194l3.553 3.559a.55.55 0 0 0 .776-.778l-4.57-4.579a1.097 1.097 0 0 0-1.553 0z"/></g></g></g></g></svg>