<svg xmlns="http://www.w3.org/2000/svg" width="25" height="25" viewBox="0 0 25 25"><g><g><g/><g><path fill="#fff" d="M21.868 3.407a.5.5 0 0 1 .075.577l-3.697 6.933a1.749 1.749 0 0 1 .082 3.125l2.083 2.917a.498.498 0 0 1-.095.68l-7.5 6a.507.507 0 0 1-.313.11.507.507 0 0 1-.312-.11l-7.5-6a.498.498 0 0 1-.095-.68l2.082-2.917a1.75 1.75 0 0 1 .078-3.125L3.058 3.984a.5.5 0 0 1 .65-.69L6.053 4.36l1.27-2.117a.5.5 0 0 1 .653-.19l2.635 1.317 1.497-1.927a.52.52 0 0 1 .79 0l1.498 1.927 2.632-1.317a.5.5 0 0 1 .653.19l1.27 2.117 2.345-1.065a.5.5 0 0 1 .572.113zm-6.845.767l1.133 1.458 1.88-.855-.973-1.623zm-8.052.603l1.88.855 1.132-1.458-2.04-1.02zm7.06 11.972l-1.528-2.14-1.527 2.14zm-3.278 1l1.75 4.2 1.75-4.2zm-4.325 0l4.863 3.89-1.62-3.89zm2.603-1l-1.528-2.14-1.527 2.14zm4.685 4.89l4.862-3.89h-3.242zm5.315-4.89l-1.528-2.14-1.527 2.14zm-2.498-2.5h-3.057l1.527 2.14zm-5 0H8.476l1.527 2.14zm5.97-1c.413 0 .75-.337.748-.75a.752.752 0 0 0-.75-.75H7.503a.752.752 0 0 0-.75.75c0 .413.338.75.75.75zm-5-2.5c.413 0 .75-.337.75-.75a.752.752 0 0 0-.75-.75.752.752 0 0 0-.75.75c0 .413.338.75.75.75zm7.865-5.932l-4.157 1.89a.5.5 0 0 1-.603-.148l-1.747-2.247v-.003l-1.358-1.745-1.355 1.743c-.002 0-.002.002-.002.002L9.398 6.557a.503.503 0 0 1-.602.147l-4.158-1.89 3.165 5.935h3.118a1.752 1.752 0 0 1 1.58-2.5 1.752 1.752 0 0 1 1.58 2.5h3.122z"/></g></g></g></svg>