<svg xmlns="http://www.w3.org/2000/svg" width="20" height="20" viewBox="0 0 20 20"><g><g><g/><g><path fill="#222" d="M1.157 9.382a1.265 1.265 0 0 1-.867-1.2c0-.549.35-1.02.844-1.19 4.97-1.749 10.044-3.377 14.898-5.375.147-.06.309-.097.48-.097a1.266 1.266 0 0 1 1.194 1.684L12.35 18.447l-.005.014c-.17.494-.64.844-1.19.844-.498 0-.927-.29-1.135-.71l-3.063-6.256-5.795-2.957z"/></g><g><path fill="#222" d="M1.157 9.382a1.265 1.265 0 0 1-.867-1.2c0-.549.35-1.02.844-1.19 4.97-1.749 10.044-3.377 14.898-5.375.147-.06.309-.097.48-.097a1.266 1.266 0 0 1 1.194 1.684L12.35 18.447l-.005.014c-.17.494-.64.844-1.19.844-.498 0-.927-.29-1.135-.71l-3.063-6.256-5.795-2.957z"/></g><g><path fill="#222" d="M1.157 9.382a1.265 1.265 0 0 1-.867-1.2c0-.549.35-1.02.844-1.19 4.97-1.749 10.044-3.377 14.898-5.375a1.261 1.261 0 0 1 1.384.286L6.758 12.242z"/></g></g></g></svg>