<svg xmlns="http://www.w3.org/2000/svg" width="25" height="25" viewBox="0 0 25 25"><g><g><path fill="#d69944" d="M20.533 5.972a1.45 1.45 0 0 1-1.463 1.441 1.45 1.45 0 0 1-1.463-1.441A1.45 1.45 0 0 1 19.07 4.53c.81 0 1.463.644 1.463 1.442zm-1.829 6.486c0 3.346-2.769 6.075-6.165 6.075s-6.165-2.729-6.165-6.075 2.77-6.074 6.165-6.074c3.396 0 6.165 2.728 6.165 6.074zm-2.22.026c0-2.136-1.75-3.887-3.945-3.887-2.168 0-3.944 1.725-3.944 3.887 0 2.136 1.75 3.887 3.944 3.887 2.168 0 3.945-1.75 3.945-3.887zm8.49-5.07v9.806c0 4.093-3.37 7.413-7.524 7.413H7.524C3.37 24.633 0 21.313 0 17.22V7.413C0 3.32 3.37 0 7.524 0h9.953C21.63 0 25 3.32 25 7.413zm-2.351 0c0-2.807-2.325-5.097-5.173-5.097H7.524c-2.874 0-5.173 2.265-5.173 5.096v9.781c0 2.806 2.325 5.097 5.173 5.097h9.926c2.848 0 5.173-2.29 5.173-5.097z"/></g></g></svg>