<svg width="25" height="25" viewBox="0 0 25 25" fill="none" xmlns="http://www.w3.org/2000/svg">
<path d="M19.07 4.53026C18.2602 4.53026 17.6071 5.17377 17.6071 5.97171C17.6071 6.76965 18.2602 7.41316 19.07 7.41316C19.8798 7.41316 20.5329 6.76965 20.5329 5.97171C20.5329 5.17377 19.8798 4.53026 19.07 4.53026ZM12.5392 6.38355C9.14316 6.38355 6.37408 9.11201 6.37408 12.4582C6.37408 15.8044 9.14316 18.5329 12.5392 18.5329C15.9352 18.5329 18.7043 15.8044 18.7043 12.4582C18.7043 9.11201 15.9352 6.38355 12.5392 6.38355ZM12.5392 16.3707C10.3448 16.3707 8.59457 14.6204 8.59457 12.484C8.59457 10.3218 10.3709 8.5972 12.5392 8.5972C14.7335 8.5972 16.4838 10.3475 16.4838 12.484C16.4838 14.6204 14.7074 16.3707 12.5392 16.3707ZM25 7.41316C25 3.32048 21.6301 0 17.4765 0H7.52351C3.36991 0 0 3.32048 0 7.41316V17.2201C0 21.3128 3.36991 24.6333 7.52351 24.6333H17.4504C21.604 24.6333 24.9739 21.3128 24.9739 17.2201V7.41316H25ZM22.6228 17.1944C22.6228 20.0001 20.2978 22.2909 17.4504 22.2909H7.52351C4.67607 22.2909 2.3511 20.0001 2.3511 17.1944V7.41316C2.3511 4.58174 4.64995 2.31661 7.52351 2.31661H17.4504C20.2978 2.31661 22.6228 4.60748 22.6228 7.41316V17.1944Z" fill="#111111"/>
</svg>
