<svg width="20" height="27" viewBox="0 0 20 27" fill="none" xmlns="http://www.w3.org/2000/svg">
<g clip-path="url(#clip0_62_321)">
<path d="M10 0C4.48583 0 0 4.495 0 10.0183C0 18.2908 9.33417 26.2342 9.73167 26.5683C9.80593 26.6316 9.90015 26.6667 9.99773 26.6673C10.0953 26.6679 10.19 26.634 10.265 26.5717C10.6625 26.2433 20 18.4367 20 10.0183C20 4.495 15.5142 0 10 0ZM10.0017 25.6983C8.4675 24.3275 0.833333 17.1492 0.833333 10.0183C0.833333 4.95333 4.94583 0.833333 10 0.833333C15.0542 0.833333 19.1667 4.95333 19.1667 10.0183C19.1667 17.27 11.54 24.3458 10.0017 25.6983Z" fill="#111111"/>
<path d="M10 5C7.2425 5 5 7.2425 5 10C5 12.7575 7.2425 15 10 15C12.7575 15 15 12.7575 15 10C15 7.2425 12.7575 5 10 5ZM10 14.1667C7.7025 14.1667 5.83333 12.2975 5.83333 10C5.83333 7.7025 7.7025 5.83333 10 5.83333C12.2975 5.83333 14.1667 7.7025 14.1667 10C14.1667 12.2975 12.2975 14.1667 10 14.1667Z" fill="#111111"/>
</g>
<defs>
<clipPath id="clip0_62_321">
<rect width="20" height="26.6667" fill="white"/>
</clipPath>
</defs>
</svg>
