<svg xmlns="http://www.w3.org/2000/svg" width="22" height="22" viewBox="0 0 22 22"><g><g><path fill="#d69944" d="M22 11c0 6.065-4.935 11-11 11-2.94 0-5.7-1.143-7.78-3.222A10.926 10.926 0 0 1 0 11C0 4.935 4.935 0 11 0s11 4.935 11 11zM11 21.187c2.489 0 4.769-.9 6.538-2.388a8.275 8.275 0 0 0-6.493-3.328c-.035.002-.068.012-.104.012h-.037c-.039 0-.076-.01-.115-.012a8.287 8.287 0 0 0-6.438 3.235c1.85 1.6 4.18 2.48 6.649 2.48zm.047-6.527a3.64 3.64 0 0 0 3.536-3.63c0-2.047-1.633-3.68-3.64-3.68-2.046 0-3.68 1.633-3.68 3.64a3.648 3.648 0 0 0 3.526 3.668c.04-.002.08-.008.12-.008.047 0 .093.008.138.01zm10.141-3.657c0-5.616-4.57-10.187-10.186-10.187C5.385.816.815 5.386.815 11.003c0 2.699 1.044 5.236 2.937 7.154a9.112 9.112 0 0 1 5.012-3.245C7.392 14.15 6.45 12.706 6.45 11.03c0-2.494 1.997-4.492 4.453-4.492 2.494 0 4.492 1.997 4.492 4.453a4.471 4.471 0 0 1-2.322 3.923 9.1 9.1 0 0 1 5.068 3.338 10.161 10.161 0 0 0 3.046-7.25z"/></g></g></svg>