<svg width="22" height="22" viewBox="0 0 22 22" fill="none" xmlns="http://www.w3.org/2000/svg">
<path d="M11 0C4.93479 0 0 4.93479 0 11C0 13.9391 1.14343 16.7009 3.22046 18.7779C5.29913 20.8566 8.06092 22 11 22C17.0652 22 22 17.0652 22 11C22 4.93479 17.0652 0 11 0ZM4.35088 18.7063C5.88955 16.7074 8.25935 15.5087 10.7886 15.4712C10.8276 15.4729 10.865 15.4826 10.904 15.4826H10.9414C10.9772 15.4826 11.0098 15.4729 11.0455 15.4712C13.6154 15.5135 16.0015 16.7464 17.5385 18.7991C15.7689 20.2873 13.4885 21.1868 11 21.1868C8.53098 21.1868 6.20021 20.3068 4.35088 18.7063ZM10.9089 14.6499C10.8683 14.6499 10.8292 14.6564 10.7886 14.658C8.83513 14.5946 7.26394 12.9957 7.26394 10.9902C7.26394 8.98314 8.89694 7.35014 10.9431 7.35014C12.9502 7.35014 14.5832 8.98314 14.5832 11.0293C14.5832 13.0006 13.0055 14.6027 11.0472 14.6596C11.0016 14.658 10.9561 14.6499 10.9089 14.6499ZM18.142 18.2526C16.8668 16.5805 15.0809 15.4062 13.0738 14.915C14.4498 14.1538 15.3964 12.6981 15.3964 10.9919C15.3964 8.53586 13.3975 6.53852 10.904 6.53852C8.44803 6.53852 6.45069 8.53748 6.45069 11.0309C6.45069 12.7062 7.39243 14.1505 8.76357 14.9117C6.79063 15.3915 5.02425 16.5333 3.75233 18.1566C1.85909 16.2389 0.814875 13.7016 0.814875 11.0033C0.814875 5.38533 5.38533 0.816502 11.0016 0.816502C16.6179 0.816502 21.1884 5.38696 21.1884 11.0033C21.1868 13.8366 20.0189 16.4032 18.142 18.2526Z" fill="#111111"/>
</svg>
