<svg xmlns="http://www.w3.org/2000/svg" width="50" height="50" viewBox="0 0 50 50"><g><g><g><path fill="#fff" d="M50 25c0 13.807-11.193 25-25 25S0 38.807 0 25 11.193 0 25 0s25 11.193 25 25z"/></g><g><path fill="#d69944" d="M26.996 33.063c0-.78-.89-1.41-1.992-1.41-1.102 0-1.992.63-1.992 1.41 0 .789.89 1.418 1.992 1.418 1.101 0 1.992-.63 1.992-1.418zM32 20.583C32 17.713 28.79 16 24.922 16c-5.063 0-7.887 1.687-7.922 5.212h2.203c-.07-2.518 1.817-3.894 5.613-3.894 2.72 0 4.993 1.368 4.993 3.348 0 1.293-.985 2.334-2.274 3.198-2.648 1.746-3.398 3.022-3.527 5.414h2.226c.13-2.174.059-2.585 2.73-4.474C30.747 23.621 32 22.421 32 20.583z"/></g></g></g></svg>