<svg width="20" height="21" viewBox="0 0 20 21" fill="none" xmlns="http://www.w3.org/2000/svg">
<path d="M15.3756 16.2266C12.8119 18.4652 8.97829 19.1705 5.75338 17.8519C1.86486 16.2621 -0.612136 11.7901 0.131802 7.62923C0.876182 3.46551 4.74748 0.0975981 9.07649 0.001599C9.15616 0.000274872 9.23583 -0.000166497 9.31572 5.4191e-05C13.5704 0.04044 17.5814 3.32361 18.3694 7.57229C18.8978 10.42 17.9868 13.4966 16.0105 15.6126L19.863 19.2817C20.0276 19.4556 19.9992 19.5134 19.9965 19.6103C19.9872 19.9469 19.5309 20.168 19.2475 19.9146L15.3756 16.2266ZM9.20162 0.882805C5.40403 0.918777 1.84059 3.78992 1.05075 7.52793C0.469454 10.2797 1.38509 13.3024 3.39864 15.2681C5.71101 17.5253 9.37111 18.2831 12.4241 17.0347C15.9558 15.591 18.2021 11.51 17.5015 7.73317C16.807 3.98876 13.3393 0.971301 9.41834 0.884129C9.34595 0.883025 9.27379 0.882584 9.20162 0.882805Z" fill="#111111"/>
</svg>
