<svg width="23" height="23" viewBox="0 0 23 23" fill="none" xmlns="http://www.w3.org/2000/svg">
<g clip-path="url(#clip0_57_343)">
<path d="M11.5096 -0.000244141C9.44207 -0.000244141 7.74031 1.58414 7.57819 3.59428H6.32527C5.18643 3.59428 4.34999 4.47824 4.1767 5.67687L1.98811 20.8144C1.81596 22.0052 2.92551 23.0009 4.13949 23.0009H18.8629C20.0862 23.0009 21.1841 22.005 21.0122 20.8144L18.8264 5.67687C18.6594 4.52035 17.8494 3.59428 16.6772 3.59428H15.4404C15.2783 1.58415 13.5772 -0.000244141 11.5096 -0.000244141ZM11.5096 0.718525C13.1922 0.718525 14.5657 1.97799 14.7244 3.59428H8.29696C8.45543 1.97799 9.82705 0.718511 11.5096 0.718525ZM6.32527 4.31374H16.6772C17.5369 4.31374 18.0104 5.05055 18.1154 5.77794L20.3012 20.9183C20.4098 21.6709 19.6332 22.2814 18.8629 22.2814H4.13949C3.37152 22.2814 2.59276 21.6748 2.70197 20.9183L4.88774 5.77794C5.00296 4.97977 5.51421 4.31374 6.32527 4.31374ZM14.7406 7.1867C14.7406 8.95059 13.2995 10.3783 11.5096 10.3783C9.71975 10.3783 8.28081 8.9506 8.28081 7.1867C8.28081 6.70864 7.56205 6.70606 7.56205 7.1867C7.56205 9.34335 9.33556 11.0971 11.5096 11.0971C13.6837 11.0971 15.4572 9.34334 15.4572 7.1867C15.4572 6.70864 14.7406 6.70864 14.7406 7.1867Z" fill="#111111"/>
</g>
<defs>
<clipPath id="clip0_57_343">
<rect width="23" height="23" fill="white"/>
</clipPath>
</defs>
</svg>
