<svg xmlns="http://www.w3.org/2000/svg" width="50" height="50" viewBox="0 0 50 50"><g><g><g><path fill="#fff" d="M50 25c0 13.807-11.193 25-25 25S0 38.807 0 25 11.193 0 25 0s25 11.193 25 25z"/></g><g transform="rotate(90 25.5 25.49)"><path fill="#d69944" d="M24.532 20.507l-4.36 4.367a.55.55 0 1 0 .776.778l3.536-3.542a.274.274 0 0 1 .468.194v8.136c0 .304.251.55.555.55h.001a.544.544 0 0 0 .543-.55v-8.136a.275.275 0 0 1 .469-.194l3.553 3.559a.55.55 0 0 0 .776-.778l-4.57-4.579a1.097 1.097 0 0 0-1.553 0z"/></g></g></g></svg>