<svg width="15" height="16" viewBox="0 0 15 16" fill="none" xmlns="http://www.w3.org/2000/svg">
<path fill-rule="evenodd" clip-rule="evenodd" d="M8.82582 14.9588L14.78 8.99565C14.9208 8.85493 14.9999 8.66411 15 8.46502C15.0001 8.26594 14.9211 8.07485 14.7803 7.93402C14.6396 7.7932 14.4487 7.71407 14.2496 7.714C14.0505 7.71393 13.8596 7.79293 13.7188 7.93366L8.89041 12.7702C8.83791 12.8225 8.77111 12.8579 8.69845 12.8722C8.62578 12.8865 8.5505 12.879 8.48211 12.8505C8.41373 12.8221 8.35531 12.7743 8.31423 12.7126C8.27314 12.651 8.25124 12.5784 8.25129 12.5044V1.39519C8.25129 0.980622 7.90882 0.644163 7.49426 0.644163H7.492C7.39395 0.644454 7.29693 0.664127 7.20653 0.702104C7.11613 0.740079 7.03415 0.79547 6.96531 0.86529C6.89646 0.935109 6.84213 1.01786 6.80543 1.10879C6.76873 1.19971 6.7504 1.29714 6.75149 1.39519V12.5044C6.75148 12.5786 6.72947 12.6513 6.68825 12.713C6.64704 12.7747 6.58846 12.8228 6.51991 12.8513C6.45137 12.8797 6.37593 12.8869 6.30313 12.8725C6.23033 12.8581 6.16342 12.8226 6.11087 12.7702L1.25924 7.91019C1.11655 7.77904 0.928696 7.70838 0.734941 7.71253C0.541185 7.71668 0.356534 7.79542 0.219594 7.93256C0.082654 8.06969 0.00402641 8.25439 0.000150681 8.44815C-0.00372601 8.64191 0.0674486 8.82968 0.198793 8.97218L6.43982 15.2246C6.57893 15.3641 6.74421 15.4747 6.92618 15.5503C7.10815 15.6258 7.30324 15.6647 7.50026 15.6647C7.69729 15.6647 7.89237 15.6258 8.07434 15.5503C8.25632 15.4747 8.4216 15.3641 8.56071 15.2246L8.82582 14.9588Z" fill="white"/>
</svg>
