<svg width="18" height="18" viewBox="0 0 18 18" fill="none" xmlns="http://www.w3.org/2000/svg">
<path d="M9 0.375008C7.43581 0.375165 5.90111 0.800687 4.56018 1.60603C3.21925 2.41136 2.12256 3.5662 1.38751 4.94692C0.652468 6.32763 0.306733 7.88225 0.387319 9.44436C0.467904 11.0065 0.971776 12.5173 1.845 13.815L0.375 17.625L4.2975 16.2225C5.42245 16.9568 6.70337 17.4182 8.03818 17.5698C9.37298 17.7215 10.7248 17.5593 11.9858 17.0961C13.2468 16.6329 14.3822 15.8816 15.3014 14.9019C16.2207 13.9223 16.8984 12.7415 17.2806 11.4536C17.6627 10.1657 17.7388 8.80634 17.5026 7.48386C17.2665 6.16139 16.7247 4.91235 15.9204 3.83632C15.1161 2.76028 14.0716 1.88699 12.8701 1.28606C11.6686 0.685118 10.3434 0.373148 9 0.375008V0.375008Z" stroke="#111111" stroke-width="0.5" stroke-linecap="round" stroke-linejoin="round"/>
<path d="M7.1251 10.875C8.1001 11.85 10.2526 13.125 11.2501 13.125C11.6877 13.1295 12.1133 12.9826 12.455 12.7093C12.7967 12.4359 13.0335 12.0529 13.1251 11.625V10.875C13.1251 10.875 12.2026 10.425 11.6251 10.125C11.0476 9.82499 10.1251 10.875 10.1251 10.875C9.4232 10.6463 8.78217 10.2617 8.2501 9.74999C7.73838 9.21792 7.35377 8.5769 7.1251 7.875C7.1251 7.875 8.1751 6.9525 7.8751 6.375C7.5751 5.7975 7.1251 4.875 7.1251 4.875H6.3751C5.94722 4.96665 5.56416 5.20336 5.2908 5.54506C5.01744 5.88676 4.87059 6.31243 4.8751 6.75C4.8751 7.7475 6.1501 9.89999 7.1251 10.875Z" stroke="#111111" stroke-width="0.5" stroke-linecap="round" stroke-linejoin="round"/>
</svg>
